name ./resultDataOpenSim/trcMotMarkerGrf/sub06/grf-14-06.mot
datacolumns 19
datarows 22
range 1.58400000 1.66800000
endheader

                time	     ground_force_vx	     ground_force_vy	     ground_force_vz	     ground_force_px	     ground_force_py	     ground_force_pz	   l_ground_force_vx	   l_ground_force_vy	   l_ground_force_vz	   l_ground_force_px	   l_ground_force_py	   l_ground_force_pz	     ground_torque_x	     ground_torque_y	     ground_torque_z	   l_ground_torque_x	   l_ground_torque_y	   l_ground_torque_z	
          1.58400000	        137.97148585	        593.49474452	        -21.17116325	          0.87706370	          0.00000000	          0.04295181	          0.00000000	          0.00000000	          0.00000000	          0.00000000	          0.00000000	          0.00000000	          0.00000000	          2.09736615	          0.00000000	          0.00000000	          0.00000000	          0.00000000	
          1.58800000	        142.74634940	        595.49059013	        -21.50977189	          0.87709542	          0.00000000	          0.04284419	          0.00000000	          0.00000000	          0.00000000	          0.00000000	          0.00000000	          0.00000000	          0.00000000	          2.00941439	          0.00000000	          0.00000000	          0.00000000	          0.00000000	
          1.59200000	        147.38756961	        596.27638844	        -22.12833527	          0.87709615	          0.00000000	          0.04272954	          0.00000000	          0.00000000	          0.00000000	          0.00000000	          0.00000000	          0.00000000	          0.00000000	          1.94910746	          0.00000000	          0.00000000	          0.00000000	          0.00000000	
          1.59600000	        151.95274305	        595.74763419	        -22.96655573	          0.87706474	          0.00000000	          0.04260739	          0.00000000	          0.00000000	          0.00000000	          0.00000000	          0.00000000	          0.00000000	          0.00000000	          1.92365953	          0.00000000	          0.00000000	          0.00000000	          0.00000000	
          1.60000000	        156.58034299	        593.77888082	        -23.87955713	          0.87700851	          0.00000000	          0.04248152	          0.00000000	          0.00000000	          0.00000000	          0.00000000	          0.00000000	          0.00000000	          0.00000000	          1.93318678	          0.00000000	          0.00000000	          0.00000000	          0.00000000	
          1.60400000	        161.47792188	        590.18904214	        -24.68790520	          0.87688585	          0.00000000	          0.04235168	          0.00000000	          0.00000000	          0.00000000	          0.00000000	          0.00000000	          0.00000000	          0.00000000	          1.96882572	          0.00000000	          0.00000000	          0.00000000	          0.00000000	
          1.60800000	        166.81629907	        584.73559929	        -25.25004322	          0.87661157	          0.00000000	          0.04222054	          0.00000000	          0.00000000	          0.00000000	          0.00000000	          0.00000000	          0.00000000	          0.00000000	          2.01393549	          0.00000000	          0.00000000	          0.00000000	          0.00000000	
          1.61200000	        172.58568612	        577.13252691	        -25.46967899	          0.87615904	          0.00000000	          0.04209968	          0.00000000	          0.00000000	          0.00000000	          0.00000000	          0.00000000	          0.00000000	          0.00000000	          2.04895164	          0.00000000	          0.00000000	          0.00000000	          0.00000000	
          1.61600000	        178.56171889	        567.05653490	        -25.25264161	          0.87555003	          0.00000000	          0.04198243	          0.00000000	          0.00000000	          0.00000000	          0.00000000	          0.00000000	          0.00000000	          0.00000000	          2.05786827	          0.00000000	          0.00000000	          0.00000000	          0.00000000	
          1.62000000	        184.37691901	        554.11250873	        -24.52004240	          0.87480606	          0.00000000	          0.04185068	          0.00000000	          0.00000000	          0.00000000	          0.00000000	          0.00000000	          0.00000000	          0.00000000	          2.03313636	          0.00000000	          0.00000000	          0.00000000	          0.00000000	
          1.62400000	        189.55956742	        537.79499986	        -23.25261434	          0.87389869	          0.00000000	          0.04170225	          0.00000000	          0.00000000	          0.00000000	          0.00000000	          0.00000000	          0.00000000	          0.00000000	          1.97698164	          0.00000000	          0.00000000	          0.00000000	          0.00000000	
          1.62800000	        193.52283833	        517.51880438	        -21.48153739	          0.87284885	          0.00000000	          0.04154746	          0.00000000	          0.00000000	          0.00000000	          0.00000000	          0.00000000	          0.00000000	          0.00000000	          1.89915973	          0.00000000	          0.00000000	          0.00000000	          0.00000000	
          1.63200000	        195.58867680	        492.74682978	        -19.25908646	          0.87171499	          0.00000000	          0.04139381	          0.00000000	          0.00000000	          0.00000000	          0.00000000	          0.00000000	          0.00000000	          0.00000000	          1.81254585	          0.00000000	          0.00000000	          0.00000000	          0.00000000	
          1.63600000	        195.07309534	        463.16312955	        -16.66450000	          0.87058416	          0.00000000	          0.04124872	          0.00000000	          0.00000000	          0.00000000	          0.00000000	          0.00000000	          0.00000000	          0.00000000	          1.72842651	          0.00000000	          0.00000000	          0.00000000	          0.00000000	
          1.64000000	        191.38422845	        428.80989925	        -13.81958404	          0.86956424	          0.00000000	          0.04111977	          0.00000000	          0.00000000	          0.00000000	          0.00000000	          0.00000000	          0.00000000	          0.00000000	          1.65318574	          0.00000000	          0.00000000	          0.00000000	          0.00000000	
          1.64400000	        184.08496591	        390.16429492	        -10.87877943	          0.86875856	          0.00000000	          0.04100973	          0.00000000	          0.00000000	          0.00000000	          0.00000000	          0.00000000	          0.00000000	          0.00000000	          1.58748636	          0.00000000	          0.00000000	          0.00000000	          0.00000000	
          1.64800000	        172.92140360	        348.18037009	         -8.00389326	          0.86828400	          0.00000000	          0.04091551	          0.00000000	          0.00000000	          0.00000000	          0.00000000	          0.00000000	          0.00000000	          0.00000000	          1.52797399	          0.00000000	          0.00000000	          0.00000000	          0.00000000	
          1.65200000	        157.86018776	        304.29172104	         -5.33951525	          0.86834545	          0.00000000	          0.04082597	          0.00000000	          0.00000000	          0.00000000	          0.00000000	          0.00000000	          0.00000000	          0.00000000	          1.47026952	          0.00000000	          0.00000000	          0.00000000	          0.00000000	
          1.65600000	        139.17996300	        260.31054416	         -2.99106341	          0.86926311	          0.00000000	          0.04071802	          0.00000000	          0.00000000	          0.00000000	          0.00000000	          0.00000000	          0.00000000	          0.00000000	          1.41136594	          0.00000000	          0.00000000	          0.00000000	          0.00000000	
          1.66000000	        117.59527854	        218.16107134	         -1.00832182	          0.87145283	          0.00000000	          0.04055117	          0.00000000	          0.00000000	          0.00000000	          0.00000000	          0.00000000	          0.00000000	          0.00000000	          1.34994439	          0.00000000	          0.00000000	          0.00000000	          0.00000000	
          1.66400000	         94.30334278	        179.49103139	          0.61436023	          0.87534283	          0.00000000	          0.04025358	          0.00000000	          0.00000000	          0.00000000	          0.00000000	          0.00000000	          0.00000000	          0.00000000	          1.28440348	          0.00000000	          0.00000000	          0.00000000	          0.00000000	
          1.66800000	         70.85101869	        145.32099994	          1.90765704	          0.88117632	          0.00000000	          0.03971897	          0.00000000	          0.00000000	          0.00000000	          0.00000000	          0.00000000	          0.00000000	          0.00000000	          1.21007878	          0.00000000	          0.00000000	          0.00000000	          0.00000000	
